<?xml version="1.0" standalone="no"?><!DOCTYPE svg PUBLIC "-//W3C//DTD SVG 1.1//EN" "http://www.w3.org/Graphics/SVG/1.1/DTD/svg11.dtd"><svg t="1566528972151" class="icon" viewBox="0 0 1024 1024" version="1.1" xmlns="http://www.w3.org/2000/svg" p-id="21605" xmlns:xlink="http://www.w3.org/1999/xlink" width="300" height="300"><defs><style type="text/css"></style></defs><path d="M420.571429 822.857143q0 6.857143-5.714286 13.714286l-182.285714 182.285714q-5.714286 5.142857-13.142858 5.142857-6.857143 0-13.142857-5.142857L23.428571 836q-8.571429-9.142857-4-20 4.571429-11.428571 17.142858-11.428571h109.714285V18.285714q0-8 5.142857-13.142857t13.142858-5.142857h109.714285q8 0 13.142857 5.142857t5.142858 13.142857v786.285715h109.714285q8 0 13.142857 5.142857t5.142858 13.142857z m603.428571 73.142857v109.714286q0 8-5.142857 13.142857t-13.142857 5.142857H530.285714q-8 0-13.142857-5.142857t-5.142857-13.142857v-109.714286q0-8 5.142857-13.142857t13.142857-5.142857h475.428572q8 0 13.142857 5.142857t5.142857 13.142857z m-109.714286-292.571429v109.714286q0 8-5.142857 13.142857t-13.142857 5.142857H530.285714q-8 0-13.142857-5.142857t-5.142857-13.142857v-109.714286q0-8 5.142857-13.142857t13.142857-5.142857h365.714286q8 0 13.142857 5.142857t5.142857 13.142857z m-109.714285-292.571428v109.714286q0 8-5.142858 13.142857t-13.142857 5.142857H530.285714q-8 0-13.142857-5.142857t-5.142857-13.142857V310.857143q0-8 5.142857-13.142857t13.142857-5.142857h256q8 0 13.142857 5.142857t5.142858 13.142857zM694.857143 18.285714v109.714286q0 8-5.142857 13.142857t-13.142857 5.142857H530.285714q-8 0-13.142857-5.142857t-5.142857-13.142857V18.285714q0-8 5.142857-13.142857t13.142857-5.142857h146.285715q8 0 13.142857 5.142857t5.142857 13.142857z" p-id="21606" ></path></svg>