<?xml version="1.0" standalone="no"?><!DOCTYPE svg PUBLIC "-//W3C//DTD SVG 1.1//EN" "http://www.w3.org/Graphics/SVG/1.1/DTD/svg11.dtd"><svg t="1566527870618" class="icon" viewBox="0 0 1024 1024" version="1.1" xmlns="http://www.w3.org/2000/svg" p-id="637" width="300" height="300" xmlns:xlink="http://www.w3.org/1999/xlink"><defs><style type="text/css"></style></defs><path d="M530.9 738.7c-16 0.8-32.5 1.3-49 1.3-58.9 0-116.1-5.3-161-15.1-42.5-9.2-62.3-19.7-68.9-24.9v-54.7c9.9 3.7 20.8 7.1 32.8 10.3 53.1 14 123.1 21.7 197.2 21.7 10.7 0 21.3-0.2 31.8-0.5-0.5-5.4-0.8-11-0.8-16.5 0-19.5 3.1-38.2 8.8-55.8-13.1 0.5-26.4 0.8-39.8 0.8-58.9 0-116.1-5.3-161-15.1-42.5-9.2-62.3-19.7-68.9-24.9v-77.1c9.9 3.7 20.8 7.1 32.8 10.3 53.1 14 123.1 21.7 197.2 21.7 36.6 0 72.2-1.9 105.3-5.5 29.6-21.5 66-34.1 105.4-34.1 33.3 0 64.4 9.1 91.2 24.8V254.1c0-15.6-6.6-38.3-37.9-57.8-16.4-10.2-38.9-19.2-66.8-26.5-53.1-14-123.1-21.7-197.2-21.7-74 0-144 7.7-197.2 21.7-27.9 7.3-50.4 16.3-66.8 26.5-31.3 19.5-37.9 42.2-37.9 57.8v470.5h3.3c4.5 12.5 14.3 26.5 34.6 39.1 16.4 10.2 38.9 19.2 66.8 26.5 53.1 14 123.1 21.7 197.2 21.7 36.9 0 72.8-1.9 106.1-5.6-24.5-17.4-44.2-40.6-57.3-67.6z m-210-503.6c44.9-9.7 102.1-15.1 161-15.1s116.1 5.3 161 15.1c29.7 6.4 48.4 13.5 59.1 19-10.8 5.5-29.4 12.6-59.1 19-44.9 9.7-102.1 15.1-161 15.1s-116.1-5.3-161-15.1c-29.7-6.4-48.4-13.5-59.1-19 10.7-5.5 29.3-12.6 59.1-19z m-68.9 93c9.9 3.7 20.8 7.1 32.8 10.3 53.1 14 123.1 21.7 197.2 21.7 74 0 144-7.7 197.2-21.7 11.9-3.1 22.9-6.6 32.7-10.3v80.1c-6.6 5.2-26.4 15.7-68.9 24.9-44.9 9.7-102.1 15.1-161 15.1s-116.1-5.3-161-15.1c-42.5-9.2-62.3-19.7-68.9-24.9v-80.1z" p-id="638" ></path><path d="M741.5 693.7h-85.6c-15.9 0-28.9-12.9-28.9-28.9s13-28.8 28.9-28.8h85.6c15.9 0 28.9 12.9 28.9 28.9s-13 28.8-28.9 28.8z" p-id="639" ></path><path d="M727.5 622v85.6c0 15.9-12.9 28.9-28.9 28.9s-28.9-12.9-28.9-28.9V622c0-15.9 12.9-28.9 28.9-28.9s28.9 13 28.9 28.9z" p-id="640" ></path><path d="M696.7 818.4c-87.4 0-158.6-71.1-158.6-158.6s71.1-158.6 158.6-158.6 158.6 71.1 158.6 158.6-71.2 158.6-158.6 158.6z m0-245c-47.7 0-86.4 38.8-86.4 86.4s38.8 86.4 86.4 86.4c47.7 0 86.4-38.8 86.4-86.4s-38.8-86.4-86.4-86.4z" p-id="641" ></path></svg>