<?xml version="1.0" standalone="no"?><!DOCTYPE svg PUBLIC "-//W3C//DTD SVG 1.1//EN" "http://www.w3.org/Graphics/SVG/1.1/DTD/svg11.dtd"><svg t="1566528879829" class="icon" viewBox="0 0 1024 1024" version="1.1" xmlns="http://www.w3.org/2000/svg" p-id="21446" xmlns:xlink="http://www.w3.org/1999/xlink" width="300" height="300"><defs><style type="text/css"></style></defs><path d="M9.404 233.372l159.968-160.004c12.496-12.494 32.766-12.49 45.254 0l159.962 160.004c20.14 20.14 5.798 54.628-22.628 54.628H256v640c0 17.674-14.326 32-32 32H160c-17.674 0-32-14.326-32-32V288H32.032c-28.482 0-42.726-34.528-22.628-54.628zM480 192h512c17.674 0 32-14.326 32-32V96c0-17.674-14.326-32-32-32H480c-17.674 0-32 14.326-32 32v64c0 17.674 14.326 32 32 32z m-32 224v-64c0-17.674 14.326-32 32-32h384c17.674 0 32 14.326 32 32v64c0 17.674-14.326 32-32 32H480c-17.674 0-32-14.326-32-32z m0 512v-64c0-17.674 14.326-32 32-32h128c17.674 0 32 14.326 32 32v64c0 17.674-14.326 32-32 32h-128c-17.674 0-32-14.326-32-32z m0-256v-64c0-17.674 14.326-32 32-32h256c17.674 0 32 14.326 32 32v64c0 17.674-14.326 32-32 32H480c-17.674 0-32-14.326-32-32z"  p-id="21447"></path></svg>